# xmcd CD Database Entry
#
# Track frame offsets:
# 150
# 24617
# 57924
# 84344
# 119901
# 146738
# 165755
# 189882
# 207299
# 228586
# 254515
# 271600
# 293167
#
# Disc length: 4240 seconds
#
# Revision: 1
# Processed by: cddbd v1.4PL0 Copyright (c) Steve Scherf et al.
# Submitted via: tcd 2.0b
#
DISCID=b5108e0d
DTITLE=Eric Clapton - Pilgrim
DYEAR=1900
DGENRE=
TTITLE0=My Father's Eyes
TTITLE1=River of Tears
TTITLE2=Pilgrim
TTITLE3=Broken Hearted
TTITLE4=One Chance
TTITLE5=Circus
TTITLE6=Going Down Slow
TTITLE7=Fall Like Rain
TTITLE8=Born In Time
TTITLE9=Sick And Tired
TTITLE10=Needs His Woman
TTITLE11=She's Gone
TTITLE12=You Were There
EXTD=
EXTT0=
EXTT1=
EXTT2=
EXTT3=
EXTT4=
EXTT5=
EXTT6=
EXTT7=
EXTT8=
EXTT9=
EXTT10=
EXTT11=
EXTT12=
PLAYORDER=
